<svg width="16" height="16" viewBox="0 0 16 16" fill="none" xmlns="http://www.w3.org/2000/svg">
<path d="M6.66667 3.25C6.25246 3.25 5.91667 3.58579 5.91667 4C5.91667 4.41421 6.25246 4.75 6.66667 4.75V3.25ZM10.6667 4.75C11.0809 4.75 11.4167 4.41421 11.4167 4C11.4167 3.58579 11.0809 3.25 10.6667 3.25V4.75ZM6.66667 8.58333C6.25246 8.58333 5.91667 8.91912 5.91667 9.33333C5.91667 9.74755 6.25246 10.0833 6.66667 10.0833V8.58333ZM10.6667 10.0833C11.0809 10.0833 11.4167 9.74755 11.4167 9.33333C11.4167 8.91912 11.0809 8.58333 10.6667 8.58333V10.0833ZM6.66667 5.91667C6.25246 5.91667 5.91667 6.25245 5.91667 6.66667C5.91667 7.08088 6.25246 7.41667 6.66667 7.41667V5.91667ZM14.6667 7.41667C15.0809 7.41667 15.4167 7.08088 15.4167 6.66667C15.4167 6.25245 15.0809 5.91667 14.6667 5.91667V7.41667ZM6.66667 11.25C6.25246 11.25 5.91667 11.5858 5.91667 12C5.91667 12.4142 6.25246 12.75 6.66667 12.75L6.66667 11.25ZM14.6667 12.75C15.0809 12.75 15.4167 12.4142 15.4167 12C15.4167 11.5858 15.0809 11.25 14.6667 11.25V12.75ZM2 4.75H3.33334V3.25H2V4.75ZM3.25 4.66667V6H4.75V4.66667H3.25ZM3.33334 5.91667H2V7.41667H3.33334V5.91667ZM2.08334 6V4.66667H0.583336L0.583336 6H2.08334ZM2 5.91667C2.04603 5.91667 2.08334 5.95398 2.08334 6H0.583336C0.583336 6.7824 1.2176 7.41667 2 7.41667V5.91667ZM3.25 6C3.25 5.95398 3.28731 5.91667 3.33334 5.91667V7.41667C4.11574 7.41667 4.75 6.7824 4.75 6H3.25ZM3.33334 4.75C3.28731 4.75 3.25 4.71269 3.25 4.66667H4.75C4.75 3.88426 4.11574 3.25 3.33334 3.25V4.75ZM2 3.25C1.2176 3.25 0.583336 3.88426 0.583336 4.66667H2.08334C2.08334 4.71269 2.04603 4.75 2 4.75V3.25ZM2 10.0833H3.33334L3.33334 8.58333H2V10.0833ZM3.25 10V11.3333H4.75V10H3.25ZM3.33334 11.25H2V12.75H3.33334V11.25ZM2.08334 11.3333V10H0.583336L0.583336 11.3333H2.08334ZM2 11.25C2.04603 11.25 2.08334 11.2873 2.08334 11.3333H0.583336C0.583336 12.1157 1.2176 12.75 2 12.75V11.25ZM3.25 11.3333C3.25 11.2873 3.28731 11.25 3.33334 11.25V12.75C4.11574 12.75 4.75 12.1157 4.75 11.3333H3.25ZM3.33334 10.0833C3.28731 10.0833 3.25 10.046 3.25 10H4.75C4.75 9.2176 4.11574 8.58333 3.33334 8.58333L3.33334 10.0833ZM2 8.58333C1.2176 8.58333 0.583336 9.2176 0.583336 10H2.08334C2.08334 10.046 2.04603 10.0833 2 10.0833V8.58333ZM6.66667 4.75L10.6667 4.75V3.25H6.66667V4.75ZM6.66667 10.0833H10.6667V8.58333H6.66667V10.0833ZM6.66667 7.41667L14.6667 7.41667V5.91667L6.66667 5.91667V7.41667ZM6.66667 12.75H14.6667V11.25H6.66667L6.66667 12.75Z" fill="#616691"/>
</svg>
